<svg xmlns="http://www.w3.org/2000/svg" style="display: none;">
    <symbol id="cookie">
        <path d="M6 7.5a1.5 1.5 0 1 1-3 0 1.5 1.5 0 0 1 3 0m4.5.5a1.5 1.5 0 1 0 0-3 1.5 1.5 0 0 0 0 3m-.5 3.5a1.5 1.5 0 1 1-3 0 1.5 1.5 0 0 1 3 0"/>
        <path d="M8 0a7.96 7.96 0 0 0-4.075 1.114q-.245.102-.437.28A8 8 0 1 0 8 0m3.25 14.201a1.5 1.5 0 0 0-2.13.71A7 7 0 0 1 8 15a6.97 6.97 0 0 1-3.845-1.15 1.5 1.5 0 1 0-2.005-2.005A6.97 6.97 0 0 1 1 8c0-1.953.8-3.719 2.09-4.989a1.5 1.5 0 1 0 2.469-1.574A7 7 0 0 1 8 1c1.42 0 2.742.423 3.845 1.15a1.5 1.5 0 1 0 2.005 2.005A6.97 6.97 0 0 1 15 8c0 .596-.074 1.174-.214 1.727a1.5 1.5 0 1 0-1.025 2.25 7 7 0 0 1-2.51 2.224Z"/>
    </symbol>
    <symbol id="help">
        <path d="M8 15A7 7 0 1 1 8 1a7 7 0 0 1 0 14m0 1A8 8 0 1 0 8 0a8 8 0 0 0 0 16"/>
        <path d="m8.93 6.588-2.29.287-.082.38.45.083c.294.07.352.176.288.469l-.738 3.468c-.194.897.105 1.319.808 1.319.545 0 1.178-.252 1.465-.598l.088-.416c-.2.176-.492.246-.686.246-.275 0-.375-.193-.304-.533zM9 4.5a1 1 0 1 1-2 0 1 1 0 0 1 2 0"/>
    </symbol>
    <symbol id="pin">
        <path d="M4.146.146A.5.5 0 0 1 4.5 0h7a.5.5 0 0 1 .5.5c0 .68-.342 1.174-.646 1.479-.126.125-.25.224-.354.298v4.431l.078.048c.203.127.476.314.751.555C12.36 7.775 13 8.527 13 9.5a.5.5 0 0 1-.5.5h-4v4.5c0 .276-.224 1.5-.5 1.5s-.5-1.224-.5-1.5V10h-4a.5.5 0 0 1-.5-.5c0-.973.64-1.725 1.17-2.189A6 6 0 0 1 5 6.708V2.277a3 3 0 0 1-.354-.298C4.342 1.674 4 1.179 4 .5a.5.5 0 0 1 .146-.354m1.58 1.408-.002-.001zm-.002-.001.002.001A.5.5 0 0 1 6 2v5a.5.5 0 0 1-.276.447h-.002l-.012.007-.054.03a5 5 0 0 0-.827.58c-.318.278-.585.596-.725.936h7.792c-.14-.34-.407-.658-.725-.936a5 5 0 0 0-.881-.61l-.012-.006h-.002A.5.5 0 0 1 10 7V2a.5.5 0 0 1 .295-.458 1.8 1.8 0 0 0 .351-.271c.08-.08.155-.17.214-.271H5.14q.091.15.214.271a1.8 1.8 0 0 0 .37.282"/>
    </symbol>
    <symbol id="pin-fill">
        <path d="M4.146.146A.5.5 0 0 1 4.5 0h7a.5.5 0 0 1 .5.5c0 .68-.342 1.174-.646 1.479-.126.125-.25.224-.354.298v4.431l.078.048c.203.127.476.314.751.555C12.36 7.775 13 8.527 13 9.5a.5.5 0 0 1-.5.5h-4v4.5c0 .276-.224 1.5-.5 1.5s-.5-1.224-.5-1.5V10h-4a.5.5 0 0 1-.5-.5c0-.973.64-1.725 1.17-2.189A6 6 0 0 1 5 6.708V2.277a3 3 0 0 1-.354-.298C4.342 1.674 4 1.179 4 .5a.5.5 0 0 1 .146-.354"/>
    </symbol>
    <symbol id="trash">
        <path d="M5.5 5.5A.5.5 0 0 1 6 6v6a.5.5 0 0 1-1 0V6a.5.5 0 0 1 .5-.5m2.5 0a.5.5 0 0 1 .5.5v6a.5.5 0 0 1-1 0V6a.5.5 0 0 1 .5-.5m3 .5a.5.5 0 0 0-1 0v6a.5.5 0 0 0 1 0z"/>
        <path d="M14.5 3a1 1 0 0 1-1 1H13v9a2 2 0 0 1-2 2H5a2 2 0 0 1-2-2V4h-.5a1 1 0 0 1-1-1V2a1 1 0 0 1 1-1H6a1 1 0 0 1 1-1h2a1 1 0 0 1 1 1h3.5a1 1 0 0 1 1 1zM4.118 4 4 4.059V13a1 1 0 0 0 1 1h6a1 1 0 0 0 1-1V4.059L11.882 4zM2.5 3h11V2h-11z"/>
    </symbol>
    <symbol id="expand">
        <path fill-rule="evenodd" d="M1.646 4.646a.5.5 0 0 1 .708 0L8 10.293l5.646-5.647a.5.5 0 0 1 .708.708l-6 6a.5.5 0 0 1-.708 0l-6-6a.5.5 0 0 1 0-.708"/>
    </symbol>
    <symbol id="collapse">
        <path fill-rule="evenodd" d="M7.646 4.646a.5.5 0 0 1 .708 0l6 6a.5.5 0 0 1-.708.708L8 5.707l-5.646 5.647a.5.5 0 0 1-.708-.708z"/>
    </symbol>
    <symbol id="clear">
        <path d="M8 15A7 7 0 1 1 8 1a7 7 0 0 1 0 14m0 1A8 8 0 1 0 8 0a8 8 0 0 0 0 16"/>
        <path d="M4.646 4.646a.5.5 0 0 1 .708 0L8 7.293l2.646-2.647a.5.5 0 0 1 .708.708L8.707 8l2.647 2.646a.5.5 0 0 1-.708.708L8 8.707l-2.646 2.647a.5.5 0 0 1-.708-.708L7.293 8 4.646 5.354a.5.5 0 0 1 0-.708"/>
    </symbol>
    <symbol id="add">
        <path d="M8 15A7 7 0 1 1 8 1a7 7 0 0 1 0 14m0 1A8 8 0 1 0 8 0a8 8 0 0 0 0 16"/>
        <path d="M8 4a.5.5 0 0 1 .5.5v3h3a.5.5 0 0 1 0 1h-3v3a.5.5 0 0 1-1 0v-3h-3a.5.5 0 0 1 0-1h3v-3A.5.5 0 0 1 8 4"/>
    </symbol>
    <symbol id="plus">
        <path d="M8 4a.5.5 0 0 1 .5.5v3h3a.5.5 0 0 1 0 1h-3v3a.5.5 0 0 1-1 0v-3h-3a.5.5 0 0 1 0-1h3v-3A.5.5 0 0 1 8 4"/>
    </symbol>
    <symbol id="plus-lg">
        <path fill-rule="evenodd" d="M8 2a.5.5 0 0 1 .5.5v5h5a.5.5 0 0 1 0 1h-5v5a.5.5 0 0 1-1 0v-5h-5a.5.5 0 0 1 0-1h5v-5A.5.5 0 0 1 8 2"/>
    </symbol>
    <symbol id="arrow-left">
        <path fill-rule="evenodd" d="M1 8a7 7 0 1 0 14 0A7 7 0 0 0 1 8m15 0A8 8 0 1 1 0 8a8 8 0 0 1 16 0m-4.5-.5a.5.5 0 0 1 0 1H5.707l2.147 2.146a.5.5 0 0 1-.708.708l-3-3a.5.5 0 0 1 0-.708l3-3a.5.5 0 1 1 .708.708L5.707 7.5z"/>
    </symbol>
    <symbol id="copy-content">
        <path d="M4 1.5H3a2 2 0 0 0-2 2V14a2 2 0 0 0 2 2h10a2 2 0 0 0 2-2V3.5a2 2 0 0 0-2-2h-1v1h1a1 1 0 0 1 1 1V14a1 1 0 0 1-1 1H3a1 1 0 0 1-1-1V3.5a1 1 0 0 1 1-1h1z"/>
        <path d="M9.5 1a.5.5 0 0 1 .5.5v1a.5.5 0 0 1-.5.5h-3a.5.5 0 0 1-.5-.5v-1a.5.5 0 0 1 .5-.5zm-3-1A1.5 1.5 0 0 0 5 1.5v1A1.5 1.5 0 0 0 6.5 4h3A1.5 1.5 0 0 0 11 2.5v-1A1.5 1.5 0 0 0 9.5 0z"/>
    </symbol>
    <symbol id="copied-content">
        <path fill-rule="evenodd" d="M10.854 7.146a.5.5 0 0 1 0 .708l-3 3a.5.5 0 0 1-.708 0l-1.5-1.5a.5.5 0 1 1 .708-.708L7.5 9.793l2.646-2.647a.5.5 0 0 1 .708 0"/>
        <path d="M4 1.5H3a2 2 0 0 0-2 2V14a2 2 0 0 0 2 2h10a2 2 0 0 0 2-2V3.5a2 2 0 0 0-2-2h-1v1h1a1 1 0 0 1 1 1V14a1 1 0 0 1-1 1H3a1 1 0 0 1-1-1V3.5a1 1 0 0 1 1-1h1z"/>
        <path d="M9.5 1a.5.5 0 0 1 .5.5v1a.5.5 0 0 1-.5.5h-3a.5.5 0 0 1-.5-.5v-1a.5.5 0 0 1 .5-.5zm-3-1A1.5 1.5 0 0 0 5 1.5v1A1.5 1.5 0 0 0 6.5 4h3A1.5 1.5 0 0 0 11 2.5v-1A1.5 1.5 0 0 0 9.5 0z"/>
    </symbol>
    <symbol id="check">
      <path d="M13.854 3.646a.5.5 0 0 1 0 .708l-7 7a.5.5 0 0 1-.708 0l-3.5-3.5a.5.5 0 1 1 .708-.708L6.5 10.293l6.646-6.647a.5.5 0 0 1 .708 0"/>
    </symbol>
    <symbol id="edit">
        <path d="M15.502 1.94a.5.5 0 0 1 0 .706L14.459 3.69l-2-2L13.502.646a.5.5 0 0 1 .707 0l1.293 1.293zm-1.75 2.456-2-2L4.939 9.21a.5.5 0 0 0-.121.196l-.805 2.414a.25.25 0 0 0 .316.316l2.414-.805a.5.5 0 0 0 .196-.12l6.813-6.814z"/>
        <path fill-rule="evenodd" d="M1 13.5A1.5 1.5 0 0 0 2.5 15h11a1.5 1.5 0 0 0 1.5-1.5v-6a.5.5 0 0 0-1 0v6a.5.5 0 0 1-.5.5h-11a.5.5 0 0 1-.5-.5v-11a.5.5 0 0 1 .5-.5H9a.5.5 0 0 0 0-1H2.5A1.5 1.5 0 0 0 1 2.5z"/>
    </symbol>
    <symbol id="save">
        <path d="M2 1a1 1 0 0 0-1 1v12a1 1 0 0 0 1 1h12a1 1 0 0 0 1-1V2a1 1 0 0 0-1-1H9.5a1 1 0 0 0-1 1v7.293l2.646-2.647a.5.5 0 0 1 .708.708l-3.5 3.5a.5.5 0 0 1-.708 0l-3.5-3.5a.5.5 0 1 1 .708-.708L7.5 9.293V2a2 2 0 0 1 2-2H14a2 2 0 0 1 2 2v12a2 2 0 0 1-2 2H2a2 2 0 0 1-2-2V2a2 2 0 0 1 2-2h2.5a.5.5 0 0 1 0 1z"/>
    </symbol>
    <symbol id="notes">
        <path fill-rule="evenodd" d="M5.5 8a.5.5 0 0 1 .5-.5h4a.5.5 0 0 1 0 1H6a.5.5 0 0 1-.5-.5"/>
        <path d="M3 0h10a2 2 0 0 1 2 2v12a2 2 0 0 1-2 2H3a2 2 0 0 1-2-2v-1h1v1a1 1 0 0 0 1 1h10a1 1 0 0 0 1-1V2a1 1 0 0 0-1-1H3a1 1 0 0 0-1 1v1H1V2a2 2 0 0 1 2-2"/>
        <path d="M1 5v-.5a.5.5 0 0 1 1 0V5h.5a.5.5 0 0 1 0 1h-2a.5.5 0 0 1 0-1zm0 3v-.5a.5.5 0 0 1 1 0V8h.5a.5.5 0 0 1 0 1h-2a.5.5 0 0 1 0-1zm0 3v-.5a.5.5 0 0 1 1 0v.5h.5a.5.5 0 0 1 0 1h-2a.5.5 0 0 1 0-1z"/>
    </symbol>
</svg>